# xmcd CD database file
#
# Track frame offsets:
#	150
#	13071
#	21337
#	35910
#	48796
#	61920
#	73466
#	85817
#	99120
#	115730
#	133976
#	149115
#	163131
#
# Disc length: 2512 seconds
#
# Revision: 0
# Processed by: cddbd v1.5.2PL0 Copyright (c) Steve Scherf et al.
# Submitted via: CDex 1.70beta2
#
DISCID=bf09ce0d
DTITLE=Varios - Los grandes del Jazz cd1
DYEAR=2005
DGENRE=Jazz
TTITLE0=Louis Armstrong - Muskarat ramble
TTITLE1=Duke Ellington and Orchestra - Do notinh' till your hear from me
TTITLE2=Lena Horne - a fine romance
TTITLE3=Benny Goddma and orchestra - Mad house
TTITLE4=Nat King Cole trio - Vom vim veedle
TTITLE5=Teddy Wilson - Stompin at teh Savoy
TTITLE6=Art Tastum - The Sheik of Araby
TTITLE7=Fats Waller and his rhythm - Honeysuckle Rose
TTITLE8=Ella Fistgerald - Moonlight in Vermont
TTITLE9=Louis Armstrong - Ain't misbehawin'
TTITLE10=Jerry Roll Morton and ret hor peepers - Wolverine Blues
TTITLE11=Bix Beiderbech - Crying al day
TTITLE12=Count Basie and orchestra - One o'clock jump
EXTD=YEAR: 2005
EXTT0=
EXTT1=
EXTT2=
EXTT3=
EXTT4=
EXTT5=
EXTT6=
EXTT7=
EXTT8=
EXTT9=
EXTT10=
EXTT11=
EXTT12=
PLAYORDER=
